<?xml version="1.0"?>
<svg width="377.693" height="377.693" xmlns="http://www.w3.org/2000/svg" xmlns:svg="http://www.w3.org/2000/svg" version="1.1" xml:space="preserve">
 <g class="layer">
  <title>Layer 1</title>
  <g id="SVGRepo_bgCarrier" stroke-width="0"/>
  <g id="SVGRepo_tracerCarrier" stroke-linecap="round" stroke-linejoin="round"/>
  <g id="SVGRepo_iconCarrier">
   <g id="svg_1">
    <path d="m350.38,34.35l-323.07,0l-27.31,128.07l23.38,0l0,186.93l330.93,0l0,-186.93l23.38,0l-27.31,-128.07zm-77.61,164.82l11.4,-12.38c1.53,-1.64 2.18,-2.73 2.18,-4.44l0,-0.37c0,-2.87 -1.74,-4.4 -4.22,-4.4l-0.29,0c-2.69,0 -4.26,1.53 -4.26,5.68l-4.81,0l0,-0.77c0,-6 2.92,-9.17 9.21,-9.17c6.56,0 9.22,3.86 9.22,7.79l0,0.62c0,3.2 -0.98,4.88 -3.25,7.32l-8.19,8.92l2.55,-0.04l8.89,0l0,4.26l-18.43,0l0,-3.02zm-13.37,-25.45l3.5,0l0,24.21l6.62,0l0,4.26l-18.05,0l0,-4.26l6.62,0l0,-18.13l-5.17,3.5l-2.37,-3.54l8.85,-6.04zm-11.73,24.21l0,4.26l-18.06,0l0,-4.26l6.63,0l0,-18.13l-5.17,3.5l-2.37,-3.54l8.85,-6.04l3.49,0l0,24.21l6.63,0zm-58.82,-145.7c27.4,0 49.61,22.21 49.61,49.62s-22.21,49.61 -49.61,49.61c-27.41,0 -49.62,-22.21 -49.62,-49.61s22.21,-49.62 49.62,-49.62zm135.46,267.12l-29.59,0l0,-90.78l-211.75,0l0,90.78l-29.59,0l0,-154.62l158.35,0l0,48.02l96.44,0l0,-48.02l16.14,0l0,154.62z" fill="#e00b0b" id="svg_2"/>
    <path d="m182.21,136.18c-2.1,-10.98 -0.16,-23.33 10.18,-29.87c-2.19,9.55 2.23,20.25 6.51,29.87c13.14,-8.84 13.6,-19.4 13.6,-27.66c0,-16.51 -11.57,-30.83 -27.38,-43.62c1.7,16.71 -10.79,28.86 -16.62,38.1c-4.71,7.07 -5.74,14.55 -2.86,20.58c1.76,3.66 8.25,9.36 16.57,12.6z" fill="#e00b0b" id="svg_3"/>
   </g>
  </g>
  <rect fill="#e00b0b" height="52" id="svg_8" stroke="#e00b0b" width="72" x="227.31" y="155.31"/>
  <text fill="#eaeaea" font-family="Sans-serif" font-size="24" id="svg_9" stroke="#e00b0b" stroke-width="0" text-anchor="middle" transform="matrix(1.66558 0 0 1.57702 -196.742 -105.208)" x="273.51" xml:space="preserve" y="192.94">193</text>
 </g>
</svg>