<!DOCTYPE svg PUBLIC "-//W3C//DTD SVG 1.1//EN" "http://www.w3.org/Graphics/SVG/1.1/DTD/svg11.dtd">
<!-- Uploaded to: SVG Repo, www.svgrepo.com, Transformed by: SVG Repo Mixer Tools -->
<svg fill="#e00b0b" height="800px" width="800px" version="1.1" id="Layer_1" xmlns="http://www.w3.org/2000/svg" xmlns:xlink="http://www.w3.org/1999/xlink" viewBox="0 0 128 128" xml:space="preserve" stroke="#e00b0b">
<g id="SVGRepo_bgCarrier" stroke-width="0"/>
<g id="SVGRepo_tracerCarrier" stroke-linecap="round" stroke-linejoin="round"/>
<g id="SVGRepo_iconCarrier"> <path d="M47.1,21.8c-9.7,2.4-12.9,7.4-15.8,11.5c-2.9,4.1-8.5,0.7-6.5-3.4c1.5-4.3,9-11.4,14.5-13.4c-1.4-0.8-3-3.3-3-6.1 c0-5.9,4.5-9.7,9.5-9.7c5.1,0,8.7,4.2,8.7,7.5h4.2v5.3h14.6v-3.4l35.9-5.2v24.7l-35.9-5.4V21H58.6l0,7.4c4,0.8,14.6,7.2,14.6,19.8 v72.9c0,1.8-0.8,4.8-4.5,4.8H36.6c-3.6,0-4.5-3-4.5-4.8V48.1c0-12.5,11-19,14.9-19.8L47.1,21.8z M45.6,14c2.3,0,4.2-1.9,4.2-4.2 c0-2.3-1.9-4.2-4.2-4.2c-2.3,0-4.2,1.9-4.2,4.2C41.5,12.1,43.4,14,45.6,14"/> </g>
</svg>