<!DOCTYPE svg PUBLIC "-//W3C//DTD SVG 1.1//EN" "http://www.w3.org/Graphics/SVG/1.1/DTD/svg11.dtd">
<!-- Uploaded to: SVG Repo, www.svgrepo.com, Transformed by: SVG Repo Mixer Tools -->
<svg fill="#000000" version="1.1" xmlns="http://www.w3.org/2000/svg" xmlns:xlink="http://www.w3.org/1999/xlink" viewBox="-57.6 -57.6 243.20 243.20" xml:space="preserve" width="800px" height="800px">
<g id="SVGRepo_bgCarrier" stroke-width="0" transform="translate(0,0), scale(1)">
<path transform="translate(-57.6, -57.6), scale(7.6)" d="M16,26.38250929764227C19.403870279919577,26.272904016187386,22.95834492715884,27.67106198303715,25.811440395469575,25.811440395469575C29.168050114184986,23.623632814793666,32.60721218073887,19.948877650249024,31.929203244808473,16C31.263232907421823,12.121237875093536,25.72616913719215,11.839476054780347,22.93596716370844,9.06403283629156C20.162127834052942,6.304865711534026,19.896053424250038,0.5127629415072535,16.000000000000004,0.15505417103045893C12.12848129878048,-0.20040199029200406,10.400194025388123,4.902051706265707,7.661650350146912,7.661650350146909C4.942761336333004,10.40144322006471,0.7096132095619422,12.164539689785938,0.27594669222047585,15.999999999999996C-0.18002232662343337,20.032709477282566,2.1489517873511343,24.22808778304441,5.535676071162943,26.464323928837054C8.561751447632137,28.4624255071377,12.375648735541507,26.49921410944894,16,26.38250929764227" fill="#f47915" strokewidth="0"/>
</g>
<g id="SVGRepo_tracerCarrier" stroke-linecap="round" stroke-linejoin="round" stroke="#000000" stroke-width="1.024"/>
<g id="SVGRepo_iconCarrier"> <g id="_x31_"> </g> <g id="svg3790"> <g> <rect x="54.9" y="63.2" width="61.1" height="6.1"/> <polygon points="92.6,34.4 100.2,55.6 87.1,55.6 87.1,59.6 104.1,59.6 104.1,58.3 104.1,55.6 94.3,28.5 100.4,5.3 96,4 84.3,47.4 88.8,48.6 "/> <path d="M66.6,81.8c-1.2-2.7-4-4.3-6.6-4.3H39.6v-8.9h0.3c-4.4,0-8.1-3.7-8.1-8.1V47.5c0-0.9,0.5-1.4,1.4-1.4 c0.9,0,1.4,0.5,1.4,1.4v13.1c0,2.9,2.5,5.1,5.1,5.1h12.3v-5.3h21.7v-0.1c0-2.7-2.1-4.9-4.9-4.9H45V36.9c0-2.7-1.8-4.7-4.6-5.1 c-0.9-0.1-1.7-0.1-2.9,0c-10.1,0.7-20.3,9-21.7,19.7C14.7,61,14.5,71.9,15.5,81c0.9,5.6,5.2,10.3,11.3,11c0.6,0.1,1.2,0.1,1.9,0.1 h26.5L70,118.9c1.7,3.7,6,5.1,9.7,3.5c3.7-1.6,5.3-6,3.6-9.8L66.6,81.8z"/> <rect x="15.7" y="95.9" width="37.3" height="5.6"/> <path d="M120.5,101.1l-2.1-2.1l-3.8,3.8h-14.1l-0.9-1.2l-0.7,0.2l-6.2,2.3l0,0l0,0l-0.7,1.6c-0.3,0.7,1.3,14.2,1.3,14.2h3.3 l1.6-7.7l11.9,0l2.4,7.8h2.9l0.2-8.8c0.9-0.9,1.2-5.2,0.8-5.9L120.5,101.1z"/> <polygon points="92.3,102.6 99,100.1 95.2,89 93.5,93.6 87.1,96.3 86.7,95.4 84.5,96.4 87.2,102.2 92.1,101 "/> <circle cx="49.1" cy="19.4" r="12.5"/> </g> </g> </g>
</svg>